<?xml version="1.0" encoding="UTF-8"?>
<svg id="OBJECTS" xmlns="http://www.w3.org/2000/svg" viewBox="0 0 221.02 195.72">
  <defs>
    <style>
      .cls-1 {
        fill: #e8e6dd;
      }

      .cls-1, .cls-2, .cls-3, .cls-4 {
        stroke-width: 0px;
      }

      .cls-2 {
        fill: none;
      }

      .cls-3, .cls-5 {
        fill: #57a1f8;
      }

      .cls-5 {
        font-family: ImprintMT-Shadow, 'Imprint MT Shadow';
        font-size: 26px;
      }

      .cls-4 {
        fill: #434343;
      }
    </style>
  </defs>
  <g>
    <path class="cls-2" d="m33.16,11.87C22.49,8.99,11.87,6.31,3.87,4.39c.2,5,2.42,16.02,17.26,21.39,3.73,1.35,7.5,2.63,11.18,3.81v-14.75c0-1.09.32-2.1.85-2.97Z"/>
    <path class="cls-2" d="m170.72,41.18c-.31-.32-.75-.51-1.19-.51h-18.91c-.91,0-1.65.74-1.65,1.65v19c0,.91.74,1.65,1.65,1.65h37.05c1.01,0,1.42-.77,1.52-1,.1-.23.37-1.06-.32-1.79l-18.14-19.01Z"/>
    <path class="cls-2" d="m31.03,45.92c-.07.02-.13.03-.2.04-.06,0-6.27.28-10.86,2.9.88,2.01,3.72,6.46,12.34,10.13v-12.63c-.42-.15-.87-.29-1.28-.44Z"/>
    <path class="cls-2" d="m217.94,75.96c0-1.48-.6-2.94-1.65-3.99l-40.41-40.41c-1.07-1.07-2.48-1.65-3.99-1.65h-29.34c-3.11,0-5.64,2.53-5.64,5.64v48.72c0,4.81-3.91,8.72-8.72,8.72H39.49c-3.11,0-5.64,2.53-5.64,5.64v.9h184.1v-23.57Zm-25.93-12.77c-.76,1.77-2.42,2.87-4.35,2.87h-37.05c-2.61,0-4.73-2.12-4.73-4.73v-19c0-2.61,2.12-4.73,4.73-4.73h18.91c1.28,0,2.53.53,3.42,1.46l18.14,19.01c1.33,1.39,1.68,3.36.93,5.13Z"/>
    <path class="cls-2" d="m19.95,29.48c-.48-.08-5.19-.81-9.05.18,4.64,5.34,12.72,9.43,21.41,12.52v-8.51c-4.05-1.29-8.23-2.7-12.36-4.19Z"/>
    <g>
      <path class="cls-4" d="m219.48,102.6H32.31c-.85,0-1.54-.69-1.54-1.54v10.9c0,4.81,3.91,8.72,8.72,8.72h25.57c.62,0,1.17-.37,1.42-.94,3.47-8.15,11.44-13.41,20.29-13.41s16.82,5.26,20.29,13.41c.24.57.8.93,1.42.93h35.53c.62,0,1.17-.37,1.42-.94,3.47-8.15,11.44-13.41,20.29-13.41s16.82,5.26,20.29,13.41c.24.57.8.94,1.42.94h24.89c4.81,0,8.72-3.91,8.72-8.72v-10.9c0,.85-.69,1.54-1.54,1.54Z"/>
      <path class="cls-4" d="m38.05,86.83h84.41c3.17,0,5.75-2.57,5.75-5.75V14.84c0-3.17-2.57-5.75-5.75-5.75H38.05c-.05,0-.1.01-.16.02,17.72,4.86,36.33,10.58,40.86,14.28,2.41,1.97,4.77,5.67,7.22,11.3,5.39,12.42,9.17,29.6,9.59,31.52.02.1.01.18.01.24.01.22.02.37,0,.53,0,0,0,0,0,0-.02.09-.05.16-.07.21-.07.19-.12.35-.22.5-.09.14-.15.19-.19.22-.12.12-.22.23-.36.32-.08.05-.17.09-.26.13l-.11.05c-.06.03-.13.07-.24.1-.47.11-4.81,1.08-14.56,1.08-8.4,0-18.25-.72-29.27-2.13-7.51-.97-13.38-2.49-17.99-4.28v17.9c0,3.17,2.57,5.75,5.75,5.75Z"/>
      <path class="cls-4" d="m64.64,39.63c.09.25,9.16,25.03,26.62,25.17-1.33-5.68-4.62-18.83-8.85-28.56-2.69-6.21-4.81-8.78-6.11-9.84-4.08-3.33-23.69-9.28-43.14-14.53-.53.87-.85,1.88-.85,2.97v14.75c16.34,5.28,30.78,8.76,30.95,8.8.64.15,1.15.61,1.37,1.23Z"/>
      <path class="cls-4" d="m61.36,41.93c-3.21-.8-15.37-3.89-29.05-8.26v8.51c12.63,4.48,26.54,6.84,33.01,7.77-2.08-3.56-3.41-6.65-3.96-8.02Z"/>
      <path class="cls-4" d="m79.45,65.7c.25,0,.5,0,.75,0-4.04-2.23-7.81-5.66-11.24-10.23-.3-.41-.59-.81-.88-1.22-.05,0-.09,0-.14-.01-13.79-1.79-25.75-4.44-35.63-7.87v12.63c4.45,1.89,10.43,3.58,18.48,4.61,10.8,1.39,20.43,2.09,28.66,2.09Z"/>
      <path class="cls-4" d="m86.77,110.1c-5.16,0-9.82,2.15-13.14,5.6-3.17,3.29-5.13,7.75-5.13,12.68,0,10.09,8.18,18.28,18.28,18.28s18.28-8.18,18.28-18.28c0-4.93-1.96-9.39-5.13-12.68-3.32-3.44-7.98-5.6-13.14-5.6Zm0,27.51c-5.1,0-9.24-4.14-9.24-9.24,0-2.49.99-4.75,2.59-6.41,1.68-1.74,4.03-2.83,6.64-2.83s4.96,1.09,6.64,2.83c1.6,1.66,2.59,3.92,2.59,6.41,0,5.1-4.14,9.24-9.24,9.24Z"/>
      <path class="cls-4" d="m165.71,110.1c-5.16,0-9.82,2.15-13.14,5.6-3.17,3.29-5.13,7.75-5.13,12.68,0,10.09,8.18,18.28,18.28,18.28s18.28-8.18,18.28-18.28c0-4.93-1.96-9.39-5.13-12.68-3.32-3.44-7.98-5.6-13.14-5.6Zm0,27.51c-5.1,0-9.24-4.14-9.24-9.24,0-2.49.99-4.75,2.59-6.41,1.68-1.74,4.03-2.83,6.64-2.83s4.96,1.09,6.64,2.83c1.6,1.66,2.59,3.92,2.59,6.41,0,5.1-4.14,9.24-9.24,9.24Z"/>
    </g>
    <g>
      <path class="cls-3" d="m50.29,67.46c11.02,1.42,20.87,2.13,29.27,2.13,9.74,0,14.09-.97,14.56-1.08.1-.03.18-.07.24-.1l.11-.05c.09-.04.17-.07.26-.13.14-.09.25-.2.36-.32.04-.03.1-.08.19-.22.1-.15.15-.31.22-.5.02-.05.05-.12.07-.21,0,0,0,0,0,0,.03-.16.02-.31,0-.53,0-.05.01-.14-.01-.24-.41-1.92-4.2-19.1-9.59-31.52-2.45-5.64-4.81-9.33-7.22-11.3-4.53-3.7-23.14-9.43-40.86-14.28C20.41,4.32,3.8.37,2.44.05c-.53-.13-1.1-.02-1.56.3C.42.67.12,1.16.06,1.71c-.02.15-1.52,14.71,11.92,23.8-1.97.28-3.67.8-5.06,1.54-.91.49-1.28,1.61-.84,2.54.13.29,3.41,6.92,17.99,13.52-3.01.78-5.54,1.9-7.54,3.33-.58.42-.89,1.12-.79,1.83.06.47,1.43,9.06,16.56,14.9,4.61,1.78,10.47,3.31,17.99,4.28ZM3.87,4.39c8,1.92,18.62,4.6,29.29,7.48,19.46,5.26,39.06,11.2,43.14,14.53,1.3,1.06,3.42,3.63,6.11,9.84,4.22,9.73,7.52,22.88,8.85,28.56-17.46-.14-26.53-24.92-26.62-25.17-.22-.62-.73-1.08-1.37-1.23-.17-.04-14.61-3.53-30.95-8.8-3.68-1.19-7.45-2.46-11.18-3.81C6.29,20.41,4.07,9.39,3.87,4.39Zm7.02,25.28c3.86-1,8.57-.26,9.05-.18,4.13,1.49,8.31,2.9,12.36,4.19,13.69,4.37,25.84,7.46,29.05,8.26.55,1.37,1.88,4.45,3.96,8.02-6.47-.93-20.38-3.28-33.01-7.77-8.69-3.09-16.78-7.18-21.41-12.52Zm9.08,19.19c4.59-2.62,10.79-2.9,10.86-2.9.07,0,.13-.02.2-.04.41.15.86.29,1.28.44,9.88,3.44,21.84,6.09,35.63,7.87.05,0,.09.01.14.01.29.41.58.81.88,1.22,3.42,4.57,7.2,8.01,11.24,10.23-.25,0-.5,0-.75,0-8.23,0-17.85-.7-28.66-2.09-8.05-1.03-14.04-2.72-18.48-4.61-8.62-3.67-11.46-8.12-12.34-10.13Z"/>
      <path class="cls-3" d="m218.47,69.79l-40.41-40.41c-1.65-1.65-3.84-2.55-6.16-2.55h-29.34c-4.81,0-8.72,3.91-8.72,8.72v48.72c0,3.11-2.53,5.64-5.64,5.64H39.49c-4.81,0-8.72,3.91-8.72,8.72v2.44c0,.85.69,1.54,1.54,1.54h187.18c.85,0,1.54-.69,1.54-1.54v-25.11c0-2.29-.93-4.54-2.55-6.16Z"/>
      <path class="cls-1" d="m172.94,39.06c-.89-.93-2.14-1.46-3.42-1.46h-18.91c-2.61,0-4.73,2.12-4.73,4.73v19c0,2.61,2.12,4.73,4.73,4.73h37.05c1.92,0,3.59-1.1,4.35-2.87s.4-3.73-.93-5.13l-18.14-19.01Z"/>
    </g>
  </g>
  <text class="cls-5" transform="translate(56.25 181.69)"><tspan x="0" y="0">FREELIFE</tspan></text>
</svg>